:SAMPLES-PER-SECOND 30
:FRAME-RANGE 1-3535
:FULLY-SPECIFIED
:DEGREES
2873
root  4.0528 38.6755 54.5738 -174.998 44.056 -176.08
RightUpLeg  -18.5862 -2.06744 6.04526
RightLeg  22.4425 -3.95526 -1.73058
RightFoot  -7.35796 -0.100605 1.45631
RightToes  5.38503e-012 1.26228e-014 -6.01869e-014
Spine  2.18126 1.38096 9.66055
Spine1  9.07846 2.15808 -0.596988
HEad  -12.5018 38.2998 -11.7697
LeftShoulder1  1.45486 -2.27248 -19.8641
LeftArm  4.61171 -5.18859 -50.3299
LeftForeArm  36.1268 -5.20194 -12.5303
LeftHand  0.00470314 3.09861 -1.13628
RightShoulder  1.86486 3.09805 22.9582
RightArm  -24.2897 12.792 48.3247
RightForeArm  76.3494 -4.97365 3.0633
RightHand  -0.0273458 -5.30472 -8.04173
LeftUpLeg  -20.2751 -1.11086 10.7704
LeftLeg  56.5946 4.03121 7.06768
LeftFoot  -3.49092 0.529687 -7.40864
LeftToes  8.9788e-011 3.29689e-010 2.1201e-011
2874
root  4.95629 38.8071 54.112 -175.167 45.1635 -176.466
RightUpLeg  -16.689 -2.65918 6.19375
RightLeg  21.7721 -2.52992 -0.866562
RightFoot  -8.60176 -0.0747214 0.685534
RightToes  5.38503e-012 1.26228e-014 -6.01869e-014
Spine  2.33493 1.70779 9.58451
Spine1  8.94782 2.50423 -1.06423
HEad  -12.9384 38.3082 -12.612
LeftShoulder1  1.39295 -1.9944 -20.0777
LeftArm  3.18427 -2.95173 -50.6218
LeftForeArm  35.6107 -4.91307 -12.411
LeftHand  -0.0114441 3.65712 -0.600472
RightShoulder  1.89658 3.37725 22.1751
RightArm  -23.306 16.3453 50.54
RightForeArm  75.7263 -5.02933 3.24182
RightHand  -0.0222576 -5.37142 -8.97999
LeftUpLeg  -22.7893 -1.597 9.15607
LeftLeg  52.8698 6.04932 8.9662
LeftFoot  -6.27872 0.310571 -6.17069
LeftToes  8.9788e-011 3.29689e-010 2.1201e-011
2875
root  5.83713 38.8801 53.6537 -175.241 46.1163 -176.782
RightUpLeg  -15.016 -2.37351 6.38428
RightLeg  21.4154 -1.95626 -0.63383
RightFoot  -10.0219 -0.0697764 0.163502
RightToes  5.38503e-012 1.26228e-014 -6.01869e-014
Spine  2.32051 2.01467 9.41988
Spine1  8.90799 2.78739 -1.49057
HEad  -12.8778 37.9713 -13.0368
LeftShoulder1  1.37088 -1.85189 -20.3967
LeftArm  0.723412 -0.850051 -50.9857
LeftForeArm  36.9313 -3.71995 -12.2732
LeftHand  -0.0155764 3.50016 -0.224708
RightShoulder  1.91334 3.60744 21.4296
RightArm  -21.4815 19.4169 52.884
RightForeArm  75.7082 -5.13019 3.84348
RightHand  -0.00853477 -5.54159 -9.51982
LeftUpLeg  -24.9933 -2.75501 7.82588
LeftLeg  47.7512 7.89604 9.61768
LeftFoot  -7.05085 0.237523 -5.2107
LeftToes  8.9788e-011 3.29689e-010 2.1201e-011
2876
root  6.71652 38.9093 53.1904 -175.383 46.9498 -177.209
RightUpLeg  -13.477 -1.33301 6.56061
RightLeg  21.3178 -2.20008 -0.935835
RightFoot  -11.5579 -0.0782648 -0.00640127
RightToes  5.38503e-012 1.26228e-014 -6.01869e-014
Spine  2.14193 2.31133 9.11435
Spine1  8.99433 3.08676 -2.01616
HEad  -12.4391 37.539 -12.9068
LeftShoulder1  1.35829 -1.75248 -20.689
LeftArm  -1.68289 0.875836 -51.4187
LeftForeArm  38.818 -1.72118 -12.0877
LeftHand  -0.0148337 3.30148 -0.15528
RightShoulder  1.93911 3.83471 20.8773
RightArm  -19.0853 21.8895 55.1519
RightForeArm  75.0913 -5.30892 4.77025
RightHand  -0.00559997 -5.56242 -10.0513
LeftUpLeg  -26.6929 -4.45418 6.68871
LeftLeg  41.4529 9.43551 9.19053
LeftFoot  -6.52705 0.216627 -4.22107
LeftToes  8.9788e-011 3.29689e-010 2.1201e-011
2877
root  7.59595 38.9162 52.7197 -175.728 47.6974 -177.682
RightUpLeg  -11.8668 -0.877736 6.67902
RightLeg  21.4577 -2.08242 -1.02642
RightFoot  -13.0565 -0.0946827 -0.423058
RightToes  5.38503e-012 1.26228e-014 -6.01869e-014
Spine  2.05387 2.59849 8.64455
Spine1  9.05536 3.38666 -2.43887
HEad  -11.5863 37.4837 -12.325
LeftShoulder1  1.32361 -1.57305 -20.9836
LeftArm  -2.70359 2.48361 -51.9378
LeftForeArm  39.3613 0.281384 -12.02
LeftHand  -0.0173724 3.59062 -0.152906
RightShoulder  1.98415 4.1253 20.3938
RightArm  -17.0159 23.6204 57.4304
RightForeArm  74.3504 -5.46169 5.5155
RightHand  -0.0338007 -5.22282 -10.2231
LeftUpLeg  -27.6649 -6.0337 5.7499
LeftLeg  34.1537 10.4115 7.85767
LeftFoot  -4.69767 0.244019 -3.71802
LeftToes  8.9788e-011 3.29689e-010 2.1201e-011
2878
root  8.47996 38.8821 52.2407 -176.09 48.3017 -178.25
RightUpLeg  -10.3908 -0.232171 6.72241
RightLeg  21.7606 -2.30478 -1.22128
RightFoot  -14.6282 -0.120491 -0.750798
RightToes  5.38503e-012 1.26228e-014 -6.01869e-014
Spine  1.86084 2.7813 7.97319
Spine1  9.15657 3.59229 -2.82397
HEad  -11.0461 38.0959 -12.0877
LeftShoulder1  1.25201 -1.24824 -21.3691
LeftArm  -3.59821 4.27134 -52.2538
LeftForeArm  40.2111 1.86774 -11.8532
LeftHand  -0.020533 3.99799 -0.342392
RightShoulder  1.99674 4.17794 20.3739
RightArm  -14.6244 25.1555 59.6016
RightForeArm  73.6728 -5.63451 6.40614
RightHand  -0.0361425 -5.195 -10.2027
LeftUpLeg  -28.4094 -6.83553 4.63729
LeftLeg  26.8158 11.0011 6.31358
LeftFoot  -3.17503 0.240902 -3.10751
LeftToes  8.9788e-011 3.29689e-010 2.1201e-011
2879
root  9.37741 38.814 51.7439 -176.364 48.664 -178.676
RightUpLeg  -8.97859 0.154501 6.86606
RightLeg  22.2624 -2.60272 -1.3943
RightFoot  -16.1058 -0.170813 -1.48794
RightToes  5.38503e-012 1.26228e-014 -6.01869e-014
Spine  1.32565 2.87188 7.28974
Spine1  9.68376 3.6883 -3.02653
HEad  -10.79 39.1017 -12.2019
LeftShoulder1  1.18655 -0.942231 -21.8353
LeftArm  -4.71476 6.20742 -52.3677
LeftForeArm  40.3657 3.19626 -11.5808
LeftHand  -0.0193989 4.10059 -0.433013
RightShoulder  2.00607 4.17885 20.5046
RightArm  -12.4034 26.2532 61.8172
RightForeArm  73.2505 -4.69629 7.3761
RightHand  -0.0487168 -5.04489 -10.1858
LeftUpLeg  -28.8116 -6.26774 3.08949
LeftLeg  19.7338 10.4197 4.43891
LeftFoot  -2.34404 0.221232 -2.63298
LeftToes  8.9788e-011 3.29689e-010 2.1201e-011
2880
root  10.2974 38.7219 51.2029 -176.659 48.8434 -178.823
RightUpLeg  -7.1481 0.40957 7.19246
RightLeg  22.6328 -2.99671 -1.59328
RightFoot  -17.551 -0.230272 -2.05726
RightToes  5.38503e-012 1.26228e-014 -6.01869e-014
Spine  0.800417 2.91657 6.93157
Spine1  10.3452 3.7879 -3.23803
HEad  -10.4069 40.1189 -12.3613
LeftShoulder1  1.11112 -0.622866 -22.2061
LeftArm  -5.62551 7.99868 -52.4843
LeftForeArm  39.6487 4.61607 -11.393
LeftHand  -0.0226089 4.55992 -0.359453
RightShoulder  2.02166 4.22215 20.5626
RightArm  -10.8094 26.512 63.9264
RightForeArm  72.4788 -3.23404 8.15474
RightHand  -0.0601093 -4.90088 -9.97748
LeftUpLeg  -28.4356 -3.60154 0.585389
LeftLeg  12.8022 7.68768 2.70817
LeftFoot  -2.45033 0.275058 -3.34869
LeftToes  8.9788e-011 3.29689e-010 2.1201e-011
2881
root  11.2257 38.6233 50.6164 -177.099 48.9167 -179.157
RightUpLeg  -5.17655 0.318524 7.31281
RightLeg  22.8267 -3.22451 -1.70878
RightFoot  -18.93 -0.299988 -2.59281
RightToes  5.38503e-012 1.26228e-014 -6.01869e-014
Spine  0.168659 2.96077 6.67397
Spine1  10.9611 3.97023 -3.6578
HEad  -9.4389 41.1505 -12.0617
LeftShoulder1  1.03272 -0.32144 -22.405
LeftArm  -6.69442 9.91952 -52.5062
LeftForeArm  39.4632 5.62929 -11.1107
LeftHand  -0.0286856 5.26497 -0.233046
RightShoulder  2.02719 4.2311 20.6073
RightArm  -9.44675 26.4948 65.9183
RightForeArm  72.1607 -2.40285 8.75326
RightHand  -0.0651051 -4.71499 -9.77822
LeftUpLeg  -27.7344 -2.53473 -1.55707
LeftLeg  6.50986 9.06713 2.10499
LeftFoot  -3.17043 0.301374 -3.95262
LeftToes  8.9788e-011 3.29689e-010 2.1201e-011
2882
root  12.1962 38.5083 49.9741 -177.56 49.0981 -179.509
RightUpLeg  -2.98895 0.40991 7.39988
RightLeg  22.8461 -3.46272 -1.81863
RightFoot  -20.2711 -0.370998 -2.99478
RightToes  5.38503e-012 1.26228e-014 -6.01869e-014
Spine  -0.536615 3.08283 6.42809
Spine1  11.3959 4.20846 -3.99523
HEad  -8.22181 42.2564 -11.5763
LeftShoulder1  0.918968 0.105508 -22.6613
LeftArm  -7.3695 11.6768 -52.191
LeftForeArm  39.3668 6.50801 -10.9267
LeftHand  -0.0272688 5.29194 -0.462021
RightShoulder  2.05911 4.30291 20.787
RightArm  -8.10783 26.2985 67.4337
RightForeArm  72.4866 -1.87973 9.38643
RightHand  -0.0713985 -4.61869 -9.47146
LeftUpLeg  -27.0002 -3.07031 -2.86383
LeftLeg  1.76946 14.1067 1.58559
LeftFoot  -4.41142 0.281462 -4.21068
LeftToes  8.9788e-011 3.29689e-010 2.1201e-011
2883
root  13.2339 38.36 49.2784 -177.329 49.2176 -179.095
RightUpLeg  -0.475097 0.647358 8.0659
RightLeg  22.2458 -3.78923 -1.92001
RightFoot  -21.4534 -0.422803 -3.13757
RightToes  5.38503e-012 1.26228e-014 -6.01869e-014
Spine  -1.37324 3.30981 6.79565
Spine1  11.6134 4.47798 -4.28027
HEad  -7.32989 43.3255 -11.0876
LeftShoulder1  0.775954 0.620465 -22.8509
LeftArm  -7.6287 13.0614 -51.6967
LeftForeArm  39.288 7.25752 -10.8784
LeftHand  -0.0285338 5.48945 -0.407392
RightShoulder  2.11683 4.38944 21.2672
RightArm  -7.32863 25.8457 68.3139
RightForeArm  72.9953 -1.46025 9.80077
RightHand  -0.0641463 -4.76986 -9.6929
LeftUpLeg  -26.5117 -3.21343 -3.51423
LeftLeg  -0.60569 18.0649 0.846952
LeftFoot  -5.36757 0.318822 -5.49139
LeftToes  8.9788e-011 3.29689e-010 2.1201e-011
